<svg width="373" height="111" viewBox="0 0 373 111" fill="none" xmlns="http://www.w3.org/2000/svg">
    <g clip-path="url(#clip0_1_3)">
        <rect width="373" height="111" fill="white" />
        <path
            d="M73.8438 34.625L74.3125 44.5625H73.125C72.8958 42.8125 72.5833 41.5625 72.1875 40.8125C71.5417 39.6042 70.6771 38.7188 69.5938 38.1562C68.5312 37.5729 67.125 37.2812 65.375 37.2812H59.4062V69.6562C59.4062 72.2604 59.6875 73.8854 60.25 74.5312C61.0417 75.4062 62.2604 75.8438 63.9062 75.8438H65.375V77H47.4062V75.8438H48.9062C50.6979 75.8438 51.9688 75.3021 52.7188 74.2188C53.1771 73.5521 53.4062 72.0312 53.4062 69.6562V37.2812H48.3125C46.3333 37.2812 44.9271 37.4271 44.0938 37.7188C43.0104 38.1146 42.0833 38.875 41.3125 40C40.5417 41.125 40.0833 42.6458 39.9375 44.5625H38.75L39.25 34.625H73.8438ZM71.125 77V75.875C71.5417 75.8542 71.9479 75.8125 72.3438 75.75C72.7396 75.6667 73.1458 75.4479 73.5625 75.0938C73.9792 74.7396 74.4167 74.1979 74.875 73.4688C75.3333 72.7396 75.8438 71.7083 76.4062 70.375L86.6562 45.4688H87.1562L98.5312 71.9062C98.9479 72.8646 99.3542 73.6146 99.75 74.1562C100.146 74.6771 100.542 75.0729 100.938 75.3438C101.354 75.5938 101.771 75.75 102.188 75.8125C102.625 75.8542 103.083 75.875 103.562 75.875V77H90.7812V75.875C90.9896 75.875 91.2604 75.8646 91.5938 75.8438C91.9271 75.8021 92.25 75.7292 92.5625 75.625C92.875 75.5208 93.1458 75.3646 93.375 75.1562C93.6042 74.9271 93.7188 74.625 93.7188 74.25C93.7188 73.8958 93.6354 73.5 93.4688 73.0625C93.3229 72.625 93.1042 72.0938 92.8125 71.4688L91.0938 67.5H80.0938L78.4375 71.4688C78.25 71.9479 78.1146 72.3646 78.0312 72.7188C77.9479 73.0521 77.9062 73.3854 77.9062 73.7188C77.9062 74.1354 78.0104 74.4896 78.2188 74.7812C78.4479 75.0521 78.7188 75.2708 79.0312 75.4375C79.3438 75.5833 79.6562 75.6979 79.9688 75.7812C80.2812 75.8438 80.5312 75.875 80.7188 75.875V77H71.125ZM80.7188 65.625H90.2812L85.375 54.25L80.7188 65.625ZM114.688 46.2812L124.281 68.9062L133.438 46.2812H143.688V47.375C142.562 47.375 141.688 47.5208 141.062 47.8125C140.438 48.1042 139.969 48.5104 139.656 49.0312C139.365 49.5521 139.177 50.1771 139.094 50.9062C139.031 51.6146 139 52.3854 139 53.2188V70.125C139 70.9375 139.021 71.6979 139.062 72.4062C139.125 73.0938 139.302 73.6979 139.594 74.2188C139.885 74.7396 140.344 75.1458 140.969 75.4375C141.615 75.7292 142.521 75.875 143.688 75.875V77H129.562V75.875C130.583 75.875 131.365 75.7083 131.906 75.375C132.469 75.0208 132.875 74.5625 133.125 74C133.396 73.4167 133.552 72.75 133.594 72C133.635 71.2292 133.656 70.4167 133.656 69.5625V50.8438H133.531L123.094 77H122.062L111.625 52.125H111.5V70.7812C111.5 71.8646 111.583 72.7396 111.75 73.4062C111.917 74.0729 112.198 74.5938 112.594 74.9688C113.01 75.3229 113.552 75.5625 114.219 75.6875C114.885 75.8125 115.719 75.875 116.719 75.875V77H104.938V75.875C106.083 75.875 106.958 75.7292 107.562 75.4375C108.188 75.125 108.635 74.7292 108.906 74.25C109.198 73.7708 109.365 73.25 109.406 72.6875C109.469 72.1042 109.5 71.5312 109.5 70.9688V54.6562C109.5 53.4062 109.479 52.3229 109.438 51.4062C109.417 50.4896 109.271 49.7396 109 49.1562C108.729 48.5521 108.281 48.1042 107.656 47.8125C107.031 47.5208 106.125 47.375 104.938 47.375V46.2812H114.688ZM160.094 77H145.906V75.875C146.885 75.875 147.667 75.7708 148.25 75.5625C148.833 75.3333 149.271 75 149.562 74.5625C149.875 74.125 150.073 73.5833 150.156 72.9375C150.26 72.2917 150.312 71.5521 150.312 70.7188V52.625C150.312 51.9583 150.292 51.3125 150.25 50.6875C150.208 50.0625 150.042 49.5104 149.75 49.0312C149.479 48.5312 149.042 48.1354 148.438 47.8438C147.854 47.5312 147.01 47.375 145.906 47.375V46.2812H160.094V47.375C158.99 47.375 158.135 47.5312 157.531 47.8438C156.948 48.1354 156.51 48.5312 156.219 49.0312C155.948 49.5104 155.792 50.0625 155.75 50.6875C155.708 51.3125 155.688 51.9583 155.688 52.625V70.7188C155.688 71.5521 155.729 72.2917 155.812 72.9375C155.917 73.5833 156.115 74.125 156.406 74.5625C156.719 75 157.167 75.3333 157.75 75.5625C158.333 75.7708 159.115 75.875 160.094 75.875V77ZM177.656 47.375C176.385 47.375 175.396 47.4896 174.688 47.7188C173.979 47.9271 173.458 48.2604 173.125 48.7188C172.792 49.1562 172.594 49.7292 172.531 50.4375C172.469 51.1458 172.438 51.9896 172.438 52.9688V72.375C172.438 72.8542 172.448 73.2708 172.469 73.625C172.49 73.9583 172.573 74.2292 172.719 74.4375C172.865 74.6458 173.083 74.8021 173.375 74.9062C173.688 74.9896 174.125 75.0312 174.688 75.0312H181.25C181.75 75.0312 182.323 75 182.969 74.9375C183.635 74.8542 184.344 74.6042 185.094 74.1875C185.844 73.7708 186.615 73.1146 187.406 72.2188C188.198 71.3229 188.979 70.0625 189.75 68.4375H190.875L188.156 77H162.594V75.875C163.698 75.875 164.542 75.7188 165.125 75.4062C165.729 75.0938 166.167 74.6979 166.438 74.2188C166.729 73.7188 166.896 73.1667 166.938 72.5625C166.979 71.9375 167 71.3229 167 70.7188V52.625C167 51.9375 166.979 51.2812 166.938 50.6562C166.896 50.0104 166.729 49.4479 166.438 48.9688C166.167 48.4688 165.729 48.0833 165.125 47.8125C164.542 47.5208 163.698 47.375 162.594 47.375V46.2812H177.656V47.375ZM266.656 34.625V35.7812C265.552 35.7812 264.656 35.9792 263.969 36.375C263.281 36.7708 262.625 37.5104 262 38.5938C261.583 39.3229 260.927 41.0625 260.031 43.8125L248.219 77.9688H246.969L237.312 50.875L227.719 77.9688H226.594L214 42.7812C213.062 40.1562 212.469 38.6042 212.219 38.125C211.802 37.3333 211.229 36.75 210.5 36.375C209.792 35.9792 208.823 35.7812 207.594 35.7812V34.625H223.281V35.7812H222.531C221.427 35.7812 220.583 36.0312 220 36.5312C219.417 37.0312 219.125 37.6354 219.125 38.3438C219.125 39.0729 219.583 40.75 220.5 43.375L228.844 67.1562L235.875 46.9375L234.625 43.375L233.625 40.5312C233.188 39.4896 232.698 38.5729 232.156 37.7812C231.885 37.3854 231.552 37.0521 231.156 36.7812C230.635 36.4062 230.115 36.1354 229.594 35.9688C229.198 35.8438 228.573 35.7812 227.719 35.7812V34.625H244.219V35.7812H243.094C241.927 35.7812 241.073 36.0312 240.531 36.5312C239.99 37.0312 239.719 37.7083 239.719 38.5625C239.719 39.625 240.188 41.4792 241.125 44.125L249.25 67.1562L257.312 43.8125C258.229 41.2292 258.688 39.4375 258.688 38.4375C258.688 37.9583 258.531 37.5104 258.219 37.0938C257.927 36.6771 257.552 36.3854 257.094 36.2188C256.302 35.9271 255.271 35.7812 254 35.7812V34.625H266.656ZM282.594 77H268.406V75.875C269.385 75.875 270.167 75.7708 270.75 75.5625C271.333 75.3333 271.771 75 272.062 74.5625C272.375 74.125 272.573 73.5833 272.656 72.9375C272.76 72.2917 272.812 71.5521 272.812 70.7188V52.625C272.812 51.9583 272.792 51.3125 272.75 50.6875C272.708 50.0625 272.542 49.5104 272.25 49.0312C271.979 48.5312 271.542 48.1354 270.938 47.8438C270.354 47.5312 269.51 47.375 268.406 47.375V46.2812H282.594V47.375C281.49 47.375 280.635 47.5312 280.031 47.8438C279.448 48.1354 279.01 48.5312 278.719 49.0312C278.448 49.5104 278.292 50.0625 278.25 50.6875C278.208 51.3125 278.188 51.9583 278.188 52.625V70.7188C278.188 71.5521 278.229 72.2917 278.312 72.9375C278.417 73.5833 278.615 74.125 278.906 74.5625C279.219 75 279.667 75.3333 280.25 75.5625C280.833 75.7708 281.615 75.875 282.594 75.875V77ZM316.875 46.2812V47.375C316.375 47.375 315.885 47.3854 315.406 47.4062C314.927 47.4271 314.406 47.5104 313.844 47.6562C313.302 47.8021 312.708 48.0312 312.062 48.3438C311.417 48.6562 310.667 49.1042 309.812 49.6875C308.979 50.2708 308.031 51.0104 306.969 51.9062C305.906 52.8021 304.698 53.8958 303.344 55.1875L299.531 58.8125L309.625 69.6875C310.938 71.1042 312.115 72.2188 313.156 73.0312C314.219 73.8229 315.156 74.4271 315.969 74.8438C316.781 75.2396 317.49 75.5 318.094 75.625C318.698 75.7292 319.229 75.8125 319.688 75.875V77H304.5V75.875C305.292 75.875 305.844 75.7292 306.156 75.4375C306.469 75.125 306.625 74.8229 306.625 74.5312C306.625 74.3646 306.594 74.2083 306.531 74.0625C306.49 73.9167 306.406 73.7604 306.281 73.5938C306.156 73.4271 305.99 73.2292 305.781 73C305.573 72.7708 305.323 72.4792 305.031 72.125L294.875 61.2812V70.7812C294.875 71.5104 294.896 72.1875 294.938 72.8125C295 73.4375 295.188 73.9792 295.5 74.4375C295.833 74.8958 296.344 75.25 297.031 75.5C297.74 75.75 298.74 75.875 300.031 75.875V77H285.094V75.875C286.198 75.875 287.042 75.7292 287.625 75.4375C288.229 75.1458 288.667 74.7604 288.938 74.2812C289.229 73.7812 289.396 73.2292 289.438 72.625C289.479 72 289.5 71.3646 289.5 70.7188V52.625C289.5 52 289.479 51.375 289.438 50.75C289.396 50.125 289.229 49.5625 288.938 49.0625C288.667 48.5625 288.229 48.1562 287.625 47.8438C287.042 47.5312 286.198 47.375 285.094 47.375V46.2812H300.031V47.375C299.135 47.375 298.365 47.4375 297.719 47.5625C297.073 47.6667 296.531 47.8958 296.094 48.25C295.677 48.5833 295.365 49.0729 295.156 49.7188C294.969 50.3438 294.875 51.1875 294.875 52.25V60.7812L303.406 52.7812C303.635 52.5729 303.917 52.3021 304.25 51.9688C304.583 51.6354 304.896 51.2917 305.188 50.9375C305.5 50.5625 305.76 50.1875 305.969 49.8125C306.198 49.4167 306.312 49.0625 306.312 48.75C306.312 48.4583 306.208 48.2188 306 48.0312C305.792 47.8438 305.552 47.7083 305.281 47.625C305.01 47.5208 304.74 47.4583 304.469 47.4375C304.198 47.3958 304.01 47.375 303.906 47.375V46.2812H316.875ZM334.906 77H320.719V75.875C321.698 75.875 322.479 75.7708 323.062 75.5625C323.646 75.3333 324.083 75 324.375 74.5625C324.688 74.125 324.885 73.5833 324.969 72.9375C325.073 72.2917 325.125 71.5521 325.125 70.7188V52.625C325.125 51.9583 325.104 51.3125 325.062 50.6875C325.021 50.0625 324.854 49.5104 324.562 49.0312C324.292 48.5312 323.854 48.1354 323.25 47.8438C322.667 47.5312 321.823 47.375 320.719 47.375V46.2812H334.906V47.375C333.802 47.375 332.948 47.5312 332.344 47.8438C331.76 48.1354 331.323 48.5312 331.031 49.0312C330.76 49.5104 330.604 50.0625 330.562 50.6875C330.521 51.3125 330.5 51.9583 330.5 52.625V70.7188C330.5 71.5521 330.542 72.2917 330.625 72.9375C330.729 73.5833 330.927 74.125 331.219 74.5625C331.531 75 331.979 75.3333 332.562 75.5625C333.146 75.7708 333.927 75.875 334.906 75.875V77Z"
            fill="black" />
    </g>
    <defs>
        <clipPath id="clip0_1_3">
            <rect width="373" height="111" fill="white" />
        </clipPath>
    </defs>
</svg>